<svg width="48" height="48" viewBox="0 0 48 48" fill="none" xmlns="http://www.w3.org/2000/svg">
<path d="M24 13.0601C23.6641 13.0793 23.344 13.2094 23.09 13.4301L13.66 21.0001C13.4561 21.1615 13.291 21.3665 13.1768 21.6001C13.0625 21.8338 13.0021 22.09 13 22.3501V33.1801C13 33.6468 13.1854 34.0945 13.5155 34.4246C13.8456 34.7546 14.2932 34.9401 14.76 34.9401H18.34C18.572 34.9414 18.8019 34.8968 19.0166 34.809C19.2313 34.7211 19.4265 34.5917 19.591 34.4281C19.7555 34.2646 19.886 34.0701 19.9751 33.8559C20.0642 33.6417 20.11 33.412 20.11 33.1801V30.9201C20.11 30.4533 20.2954 30.0056 20.6255 29.6755C20.9556 29.3455 21.4032 29.1601 21.87 29.1601H26.13C26.3611 29.1601 26.59 29.2056 26.8035 29.294C27.0171 29.3825 27.2111 29.5121 27.3745 29.6755C27.5379 29.839 27.6676 30.033 27.756 30.2465C27.8445 30.4601 27.89 30.6889 27.89 30.9201V33.1801C27.89 33.412 27.9358 33.6417 28.0249 33.8559C28.114 34.0701 28.2445 34.2646 28.409 34.4281C28.5735 34.5917 28.7687 34.7211 28.9834 34.809C29.1981 34.8968 29.428 34.9414 29.66 34.9401H33.24C33.7068 34.9401 34.1544 34.7546 34.4845 34.4246C34.8146 34.0945 35 33.6468 35 33.1801V22.3501C34.9979 22.09 34.9375 21.8338 34.8232 21.6001C34.709 21.3665 34.5439 21.1615 34.34 21.0001L24.91 13.4501C24.6567 13.2253 24.3375 13.0885 24 13.0601V13.0601Z" stroke="#0066FF" stroke-width="3" stroke-linecap="round" stroke-linejoin="round"/>
</svg>
