<svg width="48" height="48" viewBox="0 0 48 48" fill="none" xmlns="http://www.w3.org/2000/svg">
<path d="M23.988 27.9329C23.0979 27.9286 22.2326 27.6395 21.5187 27.1079C20.8048 26.5764 20.2797 25.8303 20.0204 24.9788C19.761 24.1274 19.781 23.2153 20.0775 22.376C20.3739 21.5367 20.9311 20.8144 21.6677 20.3146C22.4042 19.8149 23.2814 19.564 24.1708 19.5988C25.0602 19.6335 25.9151 19.9519 26.6104 20.5076C27.3058 21.0632 27.805 21.8268 28.0351 22.6866C28.2652 23.5464 28.2141 24.4573 27.8892 25.286C27.5909 26.0754 27.056 26.7533 26.3577 27.2271C25.6594 27.7009 24.8317 27.9474 23.988 27.9329V27.9329Z" stroke="#231815" stroke-width="2"/>
<path d="M34.133 21.5416L35.3688 20.5271C35.66 20.331 35.8689 20.0347 35.9557 19.6945C36.0424 19.3543 36.001 18.9941 35.8392 18.6825L34.2898 15.9987C34.1273 15.7055 33.8632 15.4818 33.5473 15.3696C33.2313 15.2575 32.8853 15.2648 32.5743 15.39L30.8128 16.0633C30.609 16.1423 30.389 16.1702 30.1719 16.1445C29.9548 16.1187 29.7474 16.0402 29.5677 15.9157C29.0599 15.5583 28.5195 15.2496 27.9538 14.9935C27.7519 14.905 27.5763 14.766 27.4438 14.59C27.3114 14.4139 27.2265 14.2066 27.1975 13.9882L26.8839 12.1436C26.8332 11.8235 26.6695 11.5322 26.4225 11.3224C26.1755 11.1126 25.8615 10.9982 25.5374 11H22.4386C22.1145 10.9982 21.8005 11.1126 21.5535 11.3224C21.3064 11.5322 21.1428 11.8235 21.0921 12.1436L20.7785 13.9882C20.7486 14.2063 20.6634 14.4132 20.5311 14.5892C20.3987 14.7651 20.2235 14.9043 20.0222 14.9935C19.4546 15.2515 18.9113 15.5602 18.399 15.9157C18.2214 16.0409 18.0155 16.1199 17.7997 16.1457C17.584 16.1715 17.3652 16.1431 17.1632 16.0633L15.4016 15.39C15.0974 15.2767 14.7629 15.2747 14.4573 15.3844C14.1518 15.4941 13.8949 15.7085 13.7323 15.9895L12.1829 18.6641C12.0204 18.9455 11.9637 19.2757 12.0228 19.5952C12.082 19.9147 12.2532 20.2026 12.5057 20.4072L13.9168 21.56C14.0919 21.7052 14.2282 21.8916 14.3135 22.1025C14.3988 22.3134 14.4305 22.5421 14.4056 22.7682C14.3564 23.3821 14.3564 23.9989 14.4056 24.6128C14.4246 24.8365 14.3893 25.0616 14.3026 25.2688C14.2159 25.4759 14.0803 25.659 13.9076 25.8025L12.5057 26.9461C12.2563 27.153 12.088 27.4414 12.0307 27.7604C11.9733 28.0794 12.0305 28.4083 12.1921 28.6892L13.7415 31.373C13.9041 31.654 14.161 31.8684 14.4665 31.9781C14.7721 32.0879 15.1066 32.0859 15.4109 31.9725L17.0341 31.3546C17.2393 31.2747 17.4609 31.2464 17.6796 31.2722C17.8982 31.2979 18.1073 31.3769 18.2883 31.5021C18.8403 31.9082 19.4339 32.2545 20.0591 32.5351C20.261 32.6296 20.4366 32.7725 20.5701 32.9511C20.7036 33.1296 20.791 33.3384 20.8246 33.5588L21.1013 35.2558C21.152 35.5759 21.3157 35.8672 21.5627 36.077C21.8097 36.2868 22.1237 36.4012 22.4478 36.3994H25.5466C25.8707 36.4012 26.1847 36.2868 26.4317 36.077C26.6787 35.8672 26.8424 35.5759 26.8931 35.2558L27.1698 33.5588C27.2043 33.3375 27.2919 33.1279 27.4253 32.948C27.5586 32.7681 27.7336 32.6232 27.9353 32.5259C28.561 32.25 29.1548 31.9067 29.7061 31.5021C29.8861 31.3746 30.0953 31.2942 30.3144 31.2684C30.5335 31.2427 30.7556 31.2723 30.9604 31.3546L32.5836 31.9725C32.8878 32.0859 33.2223 32.0879 33.5279 31.9781C33.8334 31.8684 34.0903 31.654 34.2529 31.373L35.8023 28.6892C35.9648 28.4078 36.0215 28.0776 35.9624 27.7581C35.9032 27.4386 35.732 27.1507 35.4795 26.9461L34.133 25.8394C33.946 25.698 33.7986 25.511 33.7049 25.2961C33.6112 25.0813 33.5744 24.8459 33.5981 24.6128C33.6666 23.9998 33.6666 23.3812 33.5981 22.7682C33.5744 22.535 33.6112 22.2997 33.7049 22.0849C33.7986 21.87 33.946 21.6829 34.133 21.5416V21.5416Z" stroke="#231815" stroke-width="2" stroke-linecap="round" stroke-linejoin="round"/>
</svg>
