<svg width="48" height="48" viewBox="0 0 48 48" fill="none" xmlns="http://www.w3.org/2000/svg">
<path d="M24.38 32.72L24 36C27.0708 34.4977 29.7953 32.3726 32 29.76C33.7486 27.5636 34.6342 24.8038 34.49 22C34.3905 19.2152 33.1889 16.584 31.1495 14.6852C29.11 12.7864 26.3998 11.7755 23.615 11.875C20.8302 11.9744 18.199 13.1761 16.3002 15.2155C14.4014 17.255 13.3905 19.9652 13.49 22.75C13.6649 25.497 14.8967 28.0696 16.9269 29.9284C18.9572 31.7871 21.6282 32.7876 24.38 32.72V32.72Z" stroke="#231815" stroke-width="2" stroke-linecap="round" stroke-linejoin="round"/>
<path d="M19.22 23.71C19.7723 23.71 20.22 23.2622 20.22 22.71C20.22 22.1577 19.7723 21.71 19.22 21.71C18.6677 21.71 18.22 22.1577 18.22 22.71C18.22 23.2622 18.6677 23.71 19.22 23.71Z" fill="black"/>
<path d="M23.97 23.5199C24.5223 23.5199 24.97 23.0722 24.97 22.5199C24.97 21.9676 24.5223 21.5199 23.97 21.5199C23.4177 21.5199 22.97 21.9676 22.97 22.5199C22.97 23.0722 23.4177 23.5199 23.97 23.5199Z" fill="black"/>
<path d="M28.78 23.33C29.3323 23.33 29.78 22.8822 29.78 22.33C29.78 21.7777 29.3323 21.33 28.78 21.33C28.2277 21.33 27.78 21.7777 27.78 22.33C27.78 22.8822 28.2277 23.33 28.78 23.33Z" fill="black"/>
</svg>
